<svg width="350" height="90" viewBox="0 0 350 90" fill="none" xmlns="http://www.w3.org/2000/svg">
<rect width="350" height="90" rx="12" fill="#F72055"/>
<path d="M82.875 41.2109C81.2917 41.2109 80.0339 40.6849 79.1016 39.6328C78.1745 38.5807 77.7109 37.1562 77.7109 35.3594C77.7109 33.5729 78.1771 32.1536 79.1094 31.1016C80.0469 30.0443 81.3021 29.5156 82.875 29.5156C84.1146 29.5156 85.1693 29.862 86.0391 30.5547C86.9141 31.2422 87.4453 32.1484 87.6328 33.2734H85.875C85.6927 32.6068 85.3281 32.0729 84.7812 31.6719C84.2396 31.2708 83.6042 31.0703 82.875 31.0703C81.849 31.0703 81.0286 31.4609 80.4141 32.2422C79.8047 33.0182 79.5 34.0573 79.5 35.3594C79.5 36.6771 79.8047 37.724 80.4141 38.5C81.0234 39.2708 81.8464 39.6562 82.8828 39.6562C83.6328 39.6562 84.2682 39.4818 84.7891 39.1328C85.3151 38.7839 85.6771 38.2943 85.875 37.6641H87.6328C87.388 38.7839 86.849 39.6562 86.0156 40.2812C85.1875 40.901 84.1406 41.2109 82.875 41.2109ZM92.5078 36.6406L96.2891 41H94.1719L90.9141 37.2109H90.8516V41H89.1719V32.7812H90.8516V36.2969H90.9141L94.1328 32.7812H96.1484L92.5078 36.6406ZM100.023 39.8047C100.617 39.8047 101.115 39.625 101.516 39.2656C101.922 38.901 102.125 38.4531 102.125 37.9219V37.2734L100.102 37.3984C99.5964 37.4349 99.2057 37.5599 98.9297 37.7734C98.6589 37.9818 98.5234 38.263 98.5234 38.6172C98.5234 38.9766 98.6589 39.2656 98.9297 39.4844C99.2057 39.6979 99.5703 39.8047 100.023 39.8047ZM99.5547 41.1406C98.7474 41.1406 98.0885 40.9115 97.5781 40.4531C97.0729 39.9948 96.8203 39.3984 96.8203 38.6641C96.8203 37.9453 97.0859 37.375 97.6172 36.9531C98.1484 36.526 98.901 36.2865 99.875 36.2344L102.125 36.1016V35.4688C102.125 35.0104 101.979 34.6536 101.688 34.3984C101.396 34.138 100.992 34.0078 100.477 34.0078C99.9974 34.0078 99.6068 34.1146 99.3047 34.3281C99.0078 34.5417 98.8203 34.8359 98.7422 35.2109H97.1484C97.1953 34.4505 97.5234 33.8307 98.1328 33.3516C98.7422 32.8724 99.5443 32.6328 100.539 32.6328C101.534 32.6328 102.326 32.8776 102.914 33.3672C103.508 33.8568 103.805 34.513 103.805 35.3359V41H102.188V39.6484H102.148C101.914 40.1016 101.557 40.4635 101.078 40.7344C100.604 41.0052 100.096 41.1406 99.5547 41.1406ZM110.977 41V37.4219H107.258V41H105.578V32.7812H107.258V36.0938H110.977V32.7812H112.656V41H110.977ZM116.148 41H114.484V32.7812H116.148V38.5391H116.211L120.008 32.7812H121.672V41H120.008V35.2266H119.945L116.148 41ZM127.773 32.6484C128.82 32.6484 129.659 33.0312 130.289 33.7969C130.919 34.5625 131.234 35.5938 131.234 36.8906C131.234 38.1875 130.922 39.2214 130.297 39.9922C129.672 40.7578 128.841 41.1406 127.805 41.1406C127.221 41.1406 126.703 41.0078 126.25 40.7422C125.802 40.4766 125.458 40.112 125.219 39.6484H125.18V43.7188H123.492V32.7812H125.125V34.1953H125.156C125.401 33.7161 125.753 33.3385 126.211 33.0625C126.669 32.7865 127.19 32.6484 127.773 32.6484ZM127.328 39.7109C127.995 39.7109 128.523 39.4583 128.914 38.9531C129.305 38.4427 129.5 37.7552 129.5 36.8906C129.5 36.0312 129.305 35.3464 128.914 34.8359C128.523 34.3255 127.995 34.0703 127.328 34.0703C126.682 34.0703 126.161 34.3281 125.766 34.8438C125.37 35.3594 125.172 36.0417 125.172 36.8906C125.172 37.7448 125.367 38.4297 125.758 38.9453C126.154 39.4557 126.677 39.7109 127.328 39.7109ZM133.289 44.0625C132.971 44.0625 132.742 44.0495 132.602 44.0234V42.6562C132.685 42.6771 132.867 42.6875 133.148 42.6875C133.544 42.6875 133.854 42.5964 134.078 42.4141C134.302 42.237 134.479 41.9375 134.609 41.5156C134.609 41.5104 134.635 41.4245 134.688 41.2578L134.758 41.0078L131.789 32.7812H133.617L135.703 39.4688H135.727L137.812 32.7812H139.594L136.508 41.4297C136.159 42.4245 135.75 43.112 135.281 43.4922C134.812 43.8724 134.148 44.0625 133.289 44.0625ZM142.383 41H140.719V32.7812H142.383V38.5391H142.445L146.242 32.7812H147.906V41H146.242V35.2266H146.18L142.383 41ZM141.836 29.1719H142.977C142.982 29.6198 143.117 29.9922 143.383 30.2891C143.648 30.5807 143.997 30.7266 144.43 30.7266C144.867 30.7266 145.219 30.5807 145.484 30.2891C145.75 29.9922 145.885 29.6198 145.891 29.1719H147.031C147.031 29.9115 146.792 30.5104 146.312 30.9688C145.833 31.4219 145.206 31.6484 144.43 31.6484C143.659 31.6484 143.034 31.4219 142.555 30.9688C142.076 30.5104 141.836 29.9115 141.836 29.1719ZM157.977 41.1875C156.352 41.1875 155.065 40.6667 154.117 39.625C153.169 38.5833 152.695 37.1641 152.695 35.3672C152.695 33.5755 153.169 32.1562 154.117 31.1094C155.065 30.0625 156.352 29.5391 157.977 29.5391C159.596 29.5391 160.88 30.0651 161.828 31.1172C162.781 32.1641 163.258 33.5807 163.258 35.3672C163.258 36.4141 163.089 37.3438 162.75 38.1562C162.411 38.9688 161.927 39.6198 161.297 40.1094L162.766 42.1953H160.938L159.977 40.8516C159.383 41.0755 158.716 41.1875 157.977 41.1875ZM157.977 39.6562C158.341 39.6562 158.693 39.6042 159.031 39.5L157.688 37.6016H159.461L160.258 38.6797C161.06 37.9349 161.461 36.8307 161.461 35.3672C161.461 34.0495 161.146 33.0052 160.516 32.2344C159.891 31.4583 159.044 31.0703 157.977 31.0703C156.909 31.0703 156.06 31.4583 155.43 32.2344C154.799 33.0052 154.484 34.0495 154.484 35.3672C154.484 36.6797 154.799 37.724 155.43 38.5C156.06 39.2708 156.909 39.6562 157.977 39.6562ZM166.68 31.1953V35.25H169.133C169.81 35.25 170.333 35.0729 170.703 34.7188C171.073 34.3646 171.258 33.8646 171.258 33.2188C171.258 32.5885 171.065 32.0938 170.68 31.7344C170.294 31.375 169.763 31.1953 169.086 31.1953H166.68ZM166.68 36.6641V41H164.93V29.7266H169.297C170.453 29.7266 171.37 30.0391 172.047 30.6641C172.724 31.2839 173.062 32.1198 173.062 33.1719C173.062 33.9375 172.867 34.6094 172.477 35.1875C172.091 35.7604 171.557 36.1615 170.875 36.3906L173.398 41H171.383L169.086 36.6641H166.68ZM179.75 37.1875H174.625V35.6641H179.75V37.1875ZM184.898 36.6406L188.68 41H186.562L183.305 37.2109H183.242V41H181.562V32.7812H183.242V36.2969H183.305L186.523 32.7812H188.539L184.898 36.6406ZM195.906 40.0156C195.198 40.776 194.253 41.1562 193.07 41.1562C191.888 41.1562 190.943 40.776 190.234 40.0156C189.526 39.25 189.172 38.2083 189.172 36.8906C189.172 35.5781 189.526 34.5417 190.234 33.7812C190.943 33.0156 191.888 32.6328 193.07 32.6328C194.253 32.6328 195.198 33.0156 195.906 33.7812C196.615 34.5417 196.969 35.5781 196.969 36.8906C196.969 38.2083 196.615 39.25 195.906 40.0156ZM193.07 39.7656C193.742 39.7656 194.273 39.513 194.664 39.0078C195.055 38.5026 195.25 37.7969 195.25 36.8906C195.25 35.9896 195.052 35.2865 194.656 34.7812C194.266 34.276 193.737 34.0234 193.07 34.0234C192.404 34.0234 191.872 34.276 191.477 34.7812C191.086 35.2865 190.891 35.9896 190.891 36.8906C190.891 37.7969 191.086 38.5026 191.477 39.0078C191.872 39.513 192.404 39.7656 193.07 39.7656ZM203.75 39.6641V34.1172H200.891L200.664 37.2578C200.596 38.3099 200.383 39.0911 200.023 39.6016V39.6641H203.75ZM199.078 43.1562H197.523V39.6641H198.188C198.729 39.3255 199.047 38.5 199.141 37.1875L199.438 32.7812H205.43V39.6641H206.703V43.1562H205.141V41H199.078V43.1562ZM212.758 41H211.094V32.7812H212.758V38.5391H212.82L216.617 32.7812H218.281V41H216.617V35.2266H216.555L212.758 41ZM226.297 41.1562C225.333 41.1562 224.542 40.9349 223.922 40.4922C223.307 40.0495 222.964 39.4505 222.891 38.6953H224.555C224.638 39.0495 224.831 39.3229 225.133 39.5156C225.435 39.7031 225.823 39.7969 226.297 39.7969C226.828 39.7969 227.24 39.6849 227.531 39.4609C227.828 39.237 227.977 38.9401 227.977 38.5703C227.977 37.7734 227.419 37.375 226.305 37.375H225.102V36.1328H226.281C227.24 36.1328 227.719 35.7734 227.719 35.0547C227.719 34.7266 227.599 34.4661 227.359 34.2734C227.12 34.0755 226.768 33.9766 226.305 33.9766C225.852 33.9766 225.482 34.0677 225.195 34.25C224.909 34.4323 224.737 34.6849 224.68 35.0078H223.062C223.151 34.2734 223.482 33.6953 224.055 33.2734C224.633 32.8464 225.38 32.6328 226.297 32.6328C227.276 32.6328 228.031 32.8359 228.562 33.2422C229.099 33.6432 229.367 34.1927 229.367 34.8906C229.367 35.3125 229.247 35.6849 229.008 36.0078C228.768 36.3307 228.451 36.5417 228.055 36.6406V36.7031C228.576 36.8229 228.971 37.0443 229.242 37.3672C229.518 37.6901 229.656 38.0885 229.656 38.5625C229.656 39.3438 229.349 39.9714 228.734 40.4453C228.125 40.9193 227.312 41.1562 226.297 41.1562ZM234.023 39.8047C234.617 39.8047 235.115 39.625 235.516 39.2656C235.922 38.901 236.125 38.4531 236.125 37.9219V37.2734L234.102 37.3984C233.596 37.4349 233.206 37.5599 232.93 37.7734C232.659 37.9818 232.523 38.263 232.523 38.6172C232.523 38.9766 232.659 39.2656 232.93 39.4844C233.206 39.6979 233.57 39.8047 234.023 39.8047ZM233.555 41.1406C232.747 41.1406 232.089 40.9115 231.578 40.4531C231.073 39.9948 230.82 39.3984 230.82 38.6641C230.82 37.9453 231.086 37.375 231.617 36.9531C232.148 36.526 232.901 36.2865 233.875 36.2344L236.125 36.1016V35.4688C236.125 35.0104 235.979 34.6536 235.688 34.3984C235.396 34.138 234.992 34.0078 234.477 34.0078C233.997 34.0078 233.607 34.1146 233.305 34.3281C233.008 34.5417 232.82 34.8359 232.742 35.2109H231.148C231.195 34.4505 231.523 33.8307 232.133 33.3516C232.742 32.8724 233.544 32.6328 234.539 32.6328C235.534 32.6328 236.326 32.8776 236.914 33.3672C237.508 33.8568 237.805 34.513 237.805 35.3359V41H236.188V39.6484H236.148C235.914 40.1016 235.557 40.4635 235.078 40.7344C234.604 41.0052 234.096 41.1406 233.555 41.1406ZM242.914 36.6406L246.695 41H244.578L241.32 37.2109H241.258V41H239.578V32.7812H241.258V36.2969H241.32L244.539 32.7812H246.555L242.914 36.6406ZM250.43 39.8047C251.023 39.8047 251.521 39.625 251.922 39.2656C252.328 38.901 252.531 38.4531 252.531 37.9219V37.2734L250.508 37.3984C250.003 37.4349 249.612 37.5599 249.336 37.7734C249.065 37.9818 248.93 38.263 248.93 38.6172C248.93 38.9766 249.065 39.2656 249.336 39.4844C249.612 39.6979 249.977 39.8047 250.43 39.8047ZM249.961 41.1406C249.154 41.1406 248.495 40.9115 247.984 40.4531C247.479 39.9948 247.227 39.3984 247.227 38.6641C247.227 37.9453 247.492 37.375 248.023 36.9531C248.555 36.526 249.307 36.2865 250.281 36.2344L252.531 36.1016V35.4688C252.531 35.0104 252.385 34.6536 252.094 34.3984C251.802 34.138 251.398 34.0078 250.883 34.0078C250.404 34.0078 250.013 34.1146 249.711 34.3281C249.414 34.5417 249.227 34.8359 249.148 35.2109H247.555C247.602 34.4505 247.93 33.8307 248.539 33.3516C249.148 32.8724 249.951 32.6328 250.945 32.6328C251.94 32.6328 252.732 32.8776 253.32 33.3672C253.914 33.8568 254.211 34.513 254.211 35.3359V41H252.594V39.6484H252.555C252.32 40.1016 251.964 40.4635 251.484 40.7344C251.01 41.0052 250.503 41.1406 249.961 41.1406ZM258.938 41.1562C257.974 41.1562 257.182 40.9349 256.562 40.4922C255.948 40.0495 255.604 39.4505 255.531 38.6953H257.195C257.279 39.0495 257.471 39.3229 257.773 39.5156C258.076 39.7031 258.464 39.7969 258.938 39.7969C259.469 39.7969 259.88 39.6849 260.172 39.4609C260.469 39.237 260.617 38.9401 260.617 38.5703C260.617 37.7734 260.06 37.375 258.945 37.375H257.742V36.1328H258.922C259.88 36.1328 260.359 35.7734 260.359 35.0547C260.359 34.7266 260.24 34.4661 260 34.2734C259.76 34.0755 259.409 33.9766 258.945 33.9766C258.492 33.9766 258.122 34.0677 257.836 34.25C257.549 34.4323 257.378 34.6849 257.32 35.0078H255.703C255.792 34.2734 256.122 33.6953 256.695 33.2734C257.273 32.8464 258.021 32.6328 258.938 32.6328C259.917 32.6328 260.672 32.8359 261.203 33.2422C261.74 33.6432 262.008 34.1927 262.008 34.8906C262.008 35.3125 261.888 35.6849 261.648 36.0078C261.409 36.3307 261.091 36.5417 260.695 36.6406V36.7031C261.216 36.8229 261.612 37.0443 261.883 37.3672C262.159 37.6901 262.297 38.0885 262.297 38.5625C262.297 39.3438 261.99 39.9714 261.375 40.4453C260.766 40.9193 259.953 41.1562 258.938 41.1562ZM271.102 41V32.7812H272.773V41H271.102ZM266.883 36.6406H265.461V39.6719H266.883C267.367 39.6719 267.753 39.5339 268.039 39.2578C268.331 38.9766 268.477 38.6094 268.477 38.1562C268.477 37.6979 268.331 37.3307 268.039 37.0547C267.747 36.7786 267.362 36.6406 266.883 36.6406ZM263.781 41V32.7812H265.461V35.3203H267.031C267.984 35.3203 268.742 35.5781 269.305 36.0938C269.872 36.6042 270.156 37.2917 270.156 38.1562C270.156 39.026 269.872 39.7188 269.305 40.2344C268.742 40.7448 267.984 41 267.031 41H263.781ZM277.984 34.0078H276.258V36.1641H277.82C278.773 36.1641 279.25 35.7995 279.25 35.0703C279.25 34.7318 279.141 34.4714 278.922 34.2891C278.703 34.1016 278.391 34.0078 277.984 34.0078ZM277.93 37.3438H276.258V39.7734H278.117C278.596 39.7734 278.961 39.6719 279.211 39.4688C279.461 39.2604 279.586 38.9583 279.586 38.5625C279.586 37.75 279.034 37.3438 277.93 37.3438ZM274.594 41V32.7812H278.328C279.13 32.7812 279.758 32.9688 280.211 33.3438C280.669 33.7135 280.898 34.224 280.898 34.875C280.898 35.3021 280.763 35.6875 280.492 36.0312C280.227 36.3698 279.896 36.5755 279.5 36.6484V36.7109C280.031 36.7839 280.458 36.9948 280.781 37.3438C281.104 37.6875 281.266 38.1172 281.266 38.6328C281.266 39.3568 281.005 39.9323 280.484 40.3594C279.969 40.7865 279.266 41 278.375 41H274.594ZM285.648 39.8047C286.242 39.8047 286.74 39.625 287.141 39.2656C287.547 38.901 287.75 38.4531 287.75 37.9219V37.2734L285.727 37.3984C285.221 37.4349 284.831 37.5599 284.555 37.7734C284.284 37.9818 284.148 38.263 284.148 38.6172C284.148 38.9766 284.284 39.2656 284.555 39.4844C284.831 39.6979 285.195 39.8047 285.648 39.8047ZM285.18 41.1406C284.372 41.1406 283.714 40.9115 283.203 40.4531C282.698 39.9948 282.445 39.3984 282.445 38.6641C282.445 37.9453 282.711 37.375 283.242 36.9531C283.773 36.526 284.526 36.2865 285.5 36.2344L287.75 36.1016V35.4688C287.75 35.0104 287.604 34.6536 287.312 34.3984C287.021 34.138 286.617 34.0078 286.102 34.0078C285.622 34.0078 285.232 34.1146 284.93 34.3281C284.633 34.5417 284.445 34.8359 284.367 35.2109H282.773C282.82 34.4505 283.148 33.8307 283.758 33.3516C284.367 32.8724 285.169 32.6328 286.164 32.6328C287.159 32.6328 287.951 32.8776 288.539 33.3672C289.133 33.8568 289.43 34.513 289.43 35.3359V41H287.812V39.6484H287.773C287.539 40.1016 287.182 40.4635 286.703 40.7344C286.229 41.0052 285.721 41.1406 285.18 41.1406ZM292.867 41H291.203V32.7812H292.867V38.5391H292.93L296.727 32.7812H298.391V41H296.727V35.2266H296.664L292.867 41ZM292.32 29.1719H293.461C293.466 29.6198 293.602 29.9922 293.867 30.2891C294.133 30.5807 294.482 30.7266 294.914 30.7266C295.352 30.7266 295.703 30.5807 295.969 30.2891C296.234 29.9922 296.37 29.6198 296.375 29.1719H297.516C297.516 29.9115 297.276 30.5104 296.797 30.9688C296.318 31.4219 295.69 31.6484 294.914 31.6484C294.143 31.6484 293.518 31.4219 293.039 30.9688C292.56 30.5104 292.32 29.9115 292.32 29.1719ZM83.2266 60V53.1172H79.5859V60H77.9062V51.7812H84.9141V60H83.2266ZM91.0234 51.6484C92.0703 51.6484 92.9089 52.0312 93.5391 52.7969C94.1693 53.5625 94.4844 54.5938 94.4844 55.8906C94.4844 57.1875 94.1719 58.2214 93.5469 58.9922C92.9219 59.7578 92.0911 60.1406 91.0547 60.1406C90.4714 60.1406 89.9531 60.0078 89.5 59.7422C89.0521 59.4766 88.7083 59.112 88.4688 58.6484H88.4297V62.7188H86.7422V51.7812H88.375V53.1953H88.4062C88.651 52.7161 89.0026 52.3385 89.4609 52.0625C89.9193 51.7865 90.4401 51.6484 91.0234 51.6484ZM90.5781 58.7109C91.2448 58.7109 91.7734 58.4583 92.1641 57.9531C92.5547 57.4427 92.75 56.7552 92.75 55.8906C92.75 55.0312 92.5547 54.3464 92.1641 53.8359C91.7734 53.3255 91.2448 53.0703 90.5781 53.0703C89.9323 53.0703 89.4115 53.3281 89.0156 53.8438C88.6198 54.3594 88.4219 55.0417 88.4219 55.8906C88.4219 56.7448 88.6172 57.4297 89.0078 57.9453C89.4036 58.4557 89.9271 58.7109 90.5781 58.7109ZM98.9922 55.8828H100.484V53.1094H98.9922C98.5078 53.1094 98.1224 53.2396 97.8359 53.5C97.5547 53.7552 97.4141 54.1042 97.4141 54.5469C97.4141 54.9427 97.5573 55.2656 97.8438 55.5156C98.1354 55.7604 98.5182 55.8828 98.9922 55.8828ZM100.484 60V57.1797H99.2344L97.2422 60H95.3359L97.5781 56.8906C97.0052 56.7188 96.5547 56.4297 96.2266 56.0234C95.8984 55.612 95.7344 55.1224 95.7344 54.5547C95.7344 53.7005 96.0208 53.026 96.5938 52.5312C97.1719 52.0312 97.9427 51.7812 98.9062 51.7812H102.141V60H100.484ZM105.578 60H103.953V51.7812H106.07L108.703 57.8047H108.766L111.414 51.7812H113.484V60H111.844V54.2969H111.789L109.328 59.6797H108.094L105.633 54.2969H105.578V60ZM121.672 59.0156C120.964 59.776 120.018 60.1562 118.836 60.1562C117.654 60.1562 116.708 59.776 116 59.0156C115.292 58.25 114.938 57.2083 114.938 55.8906C114.938 54.5781 115.292 53.5417 116 52.7812C116.708 52.0156 117.654 51.6328 118.836 51.6328C120.018 51.6328 120.964 52.0156 121.672 52.7812C122.38 53.5417 122.734 54.5781 122.734 55.8906C122.734 57.2083 122.38 58.25 121.672 59.0156ZM118.836 58.7656C119.508 58.7656 120.039 58.513 120.43 58.0078C120.82 57.5026 121.016 56.7969 121.016 55.8906C121.016 54.9896 120.818 54.2865 120.422 53.7812C120.031 53.276 119.503 53.0234 118.836 53.0234C118.169 53.0234 117.638 53.276 117.242 53.7812C116.852 54.2865 116.656 54.9896 116.656 55.8906C116.656 56.7969 116.852 57.5026 117.242 58.0078C117.638 58.513 118.169 58.7656 118.836 58.7656ZM130.828 53.0078H129.102V55.1641H130.664C131.617 55.1641 132.094 54.7995 132.094 54.0703C132.094 53.7318 131.984 53.4714 131.766 53.2891C131.547 53.1016 131.234 53.0078 130.828 53.0078ZM130.773 56.3438H129.102V58.7734H130.961C131.44 58.7734 131.805 58.6719 132.055 58.4688C132.305 58.2604 132.43 57.9583 132.43 57.5625C132.43 56.75 131.878 56.3438 130.773 56.3438ZM127.438 60V51.7812H131.172C131.974 51.7812 132.602 51.9688 133.055 52.3438C133.513 52.7135 133.742 53.224 133.742 53.875C133.742 54.3021 133.607 54.6875 133.336 55.0312C133.07 55.3698 132.74 55.5755 132.344 55.6484V55.7109C132.875 55.7839 133.302 55.9948 133.625 56.3438C133.948 56.6875 134.109 57.1172 134.109 57.6328C134.109 58.3568 133.849 58.9323 133.328 59.3594C132.812 59.7865 132.109 60 131.219 60H127.438ZM141.812 60.1562C140.849 60.1562 140.057 59.9349 139.438 59.4922C138.823 59.0495 138.479 58.4505 138.406 57.6953H140.07C140.154 58.0495 140.346 58.3229 140.648 58.5156C140.951 58.7031 141.339 58.7969 141.812 58.7969C142.344 58.7969 142.755 58.6849 143.047 58.4609C143.344 58.237 143.492 57.9401 143.492 57.5703C143.492 56.7734 142.935 56.375 141.82 56.375H140.617V55.1328H141.797C142.755 55.1328 143.234 54.7734 143.234 54.0547C143.234 53.7266 143.115 53.4661 142.875 53.2734C142.635 53.0755 142.284 52.9766 141.82 52.9766C141.367 52.9766 140.997 53.0677 140.711 53.25C140.424 53.4323 140.253 53.6849 140.195 54.0078H138.578C138.667 53.2734 138.997 52.6953 139.57 52.2734C140.148 51.8464 140.896 51.6328 141.812 51.6328C142.792 51.6328 143.547 51.8359 144.078 52.2422C144.615 52.6432 144.883 53.1927 144.883 53.8906C144.883 54.3125 144.763 54.6849 144.523 55.0078C144.284 55.3307 143.966 55.5417 143.57 55.6406V55.7031C144.091 55.8229 144.487 56.0443 144.758 56.3672C145.034 56.6901 145.172 57.0885 145.172 57.5625C145.172 58.3438 144.865 58.9714 144.25 59.4453C143.641 59.9193 142.828 60.1562 141.812 60.1562ZM149.539 58.8047C150.133 58.8047 150.63 58.625 151.031 58.2656C151.438 57.901 151.641 57.4531 151.641 56.9219V56.2734L149.617 56.3984C149.112 56.4349 148.721 56.5599 148.445 56.7734C148.174 56.9818 148.039 57.263 148.039 57.6172C148.039 57.9766 148.174 58.2656 148.445 58.4844C148.721 58.6979 149.086 58.8047 149.539 58.8047ZM149.07 60.1406C148.263 60.1406 147.604 59.9115 147.094 59.4531C146.589 58.9948 146.336 58.3984 146.336 57.6641C146.336 56.9453 146.602 56.375 147.133 55.9531C147.664 55.526 148.417 55.2865 149.391 55.2344L151.641 55.1016V54.4688C151.641 54.0104 151.495 53.6536 151.203 53.3984C150.911 53.138 150.508 53.0078 149.992 53.0078C149.513 53.0078 149.122 53.1146 148.82 53.3281C148.523 53.5417 148.336 53.8359 148.258 54.2109H146.664C146.711 53.4505 147.039 52.8307 147.648 52.3516C148.258 51.8724 149.06 51.6328 150.055 51.6328C151.049 51.6328 151.841 51.8776 152.43 52.3672C153.023 52.8568 153.32 53.513 153.32 54.3359V60H151.703V58.6484H151.664C151.43 59.1016 151.073 59.4635 150.594 59.7344C150.12 60.0052 149.612 60.1406 149.07 60.1406ZM158.484 53.0078H156.758V55.1641H158.32C159.273 55.1641 159.75 54.7995 159.75 54.0703C159.75 53.7318 159.641 53.4714 159.422 53.2891C159.203 53.1016 158.891 53.0078 158.484 53.0078ZM158.43 56.3438H156.758V58.7734H158.617C159.096 58.7734 159.461 58.6719 159.711 58.4688C159.961 58.2604 160.086 57.9583 160.086 57.5625C160.086 56.75 159.534 56.3438 158.43 56.3438ZM155.094 60V51.7812H158.828C159.63 51.7812 160.258 51.9688 160.711 52.3438C161.169 52.7135 161.398 53.224 161.398 53.875C161.398 54.3021 161.263 54.6875 160.992 55.0312C160.727 55.3698 160.396 55.5755 160 55.6484V55.7109C160.531 55.7839 160.958 55.9948 161.281 56.3438C161.604 56.6875 161.766 57.1172 161.766 57.6328C161.766 58.3568 161.505 58.9323 160.984 59.3594C160.469 59.7865 159.766 60 158.875 60H155.094ZM168.141 53.5859C167.771 53.1901 167.294 52.9922 166.711 52.9922C166.128 52.9922 165.643 53.1927 165.258 53.5938C164.872 53.9896 164.659 54.5026 164.617 55.1328H168.727C168.706 54.4974 168.51 53.9818 168.141 53.5859ZM168.719 57.5859H170.32C170.201 58.3411 169.815 58.9583 169.164 59.4375C168.513 59.9167 167.719 60.1562 166.781 60.1562C165.578 60.1562 164.63 59.7786 163.938 59.0234C163.25 58.263 162.906 57.2318 162.906 55.9297C162.906 54.638 163.25 53.599 163.938 52.8125C164.63 52.026 165.555 51.6328 166.711 51.6328C167.846 51.6328 168.747 52.0052 169.414 52.75C170.081 53.4896 170.414 54.4844 170.414 55.7344V56.3125H164.609V56.4141C164.609 57.1328 164.81 57.7083 165.211 58.1406C165.612 58.5729 166.148 58.7891 166.82 58.7891C167.294 58.7891 167.701 58.6797 168.039 58.4609C168.378 58.2422 168.604 57.9505 168.719 57.5859ZM177.188 58.6641V53.1172H174.328L174.102 56.2578C174.034 57.3099 173.82 58.0911 173.461 58.6016V58.6641H177.188ZM172.516 62.1562H170.961V58.6641H171.625C172.167 58.3255 172.484 57.5 172.578 56.1875L172.875 51.7812H178.867V58.6641H180.141V62.1562H178.578V60H172.516V62.1562ZM186.156 53.5859C185.786 53.1901 185.31 52.9922 184.727 52.9922C184.143 52.9922 183.659 53.1927 183.273 53.5938C182.888 53.9896 182.674 54.5026 182.633 55.1328H186.742C186.721 54.4974 186.526 53.9818 186.156 53.5859ZM186.734 57.5859H188.336C188.216 58.3411 187.831 58.9583 187.18 59.4375C186.529 59.9167 185.734 60.1562 184.797 60.1562C183.594 60.1562 182.646 59.7786 181.953 59.0234C181.266 58.263 180.922 57.2318 180.922 55.9297C180.922 54.638 181.266 53.599 181.953 52.8125C182.646 52.026 183.57 51.6328 184.727 51.6328C185.862 51.6328 186.763 52.0052 187.43 52.75C188.096 53.4896 188.43 54.4844 188.43 55.7344V56.3125H182.625V56.4141C182.625 57.1328 182.826 57.7083 183.227 58.1406C183.628 58.5729 184.164 58.7891 184.836 58.7891C185.31 58.7891 185.716 58.6797 186.055 58.4609C186.393 58.2422 186.62 57.9505 186.734 57.5859ZM195.273 60V56.4219H191.555V60H189.875V51.7812H191.555V55.0938H195.273V51.7812H196.953V60H195.273ZM200.445 60H198.781V51.7812H200.445V57.5391H200.508L204.305 51.7812H205.969V60H204.305V54.2266H204.242L200.445 60ZM209.445 60H207.781V51.7812H209.445V57.5391H209.508L213.305 51.7812H214.969V60H213.305V54.2266H213.242L209.445 60Z" fill="white"/>
<rect x="24.75" y="11.75" width="34.5" height="66.5" rx="5.25" stroke="white" stroke-width="1.5"/>
<path d="M32 39.5V36.125C32 35.8266 32.1185 35.5405 32.3295 35.3295C32.5405 35.1185 32.8266 35 33.125 35H36.5" stroke="white" stroke-width="1.5" stroke-linecap="round" stroke-linejoin="round"/>
<path d="M52.25 39.5V36.125C52.25 35.8266 52.1315 35.5405 51.9205 35.3295C51.7095 35.1185 51.4234 35 51.125 35H47.75" stroke="white" stroke-width="1.5" stroke-linecap="round" stroke-linejoin="round"/>
<path d="M32 50.75V54.125C32 54.4234 32.1185 54.7095 32.3295 54.9205C32.5405 55.1315 32.8266 55.25 33.125 55.25H36.5" stroke="white" stroke-width="1.5" stroke-linecap="round" stroke-linejoin="round"/>
<path d="M52.25 50.75V54.125C52.25 54.4234 52.1315 54.7095 51.9205 54.9205C51.7095 55.1315 51.4234 55.25 51.125 55.25H47.75" stroke="white" stroke-width="1.5" stroke-linecap="round" stroke-linejoin="round"/>
<path d="M32 45.1251H52.2501" stroke="white" stroke-width="1.5" stroke-linecap="round" stroke-linejoin="round"/>
</svg>
